<?xml version="1.0" encoding="UTF-8" standalone="no"?>
<!-- Created with Inkscape (http://www.inkscape.org/) -->

<svg
   width="200mm"
   height="40.000004mm"
   viewBox="0 0 755.90552 151.18111"
   version="1.1"
   id="svg1"
   xmlns="http://www.w3.org/2000/svg"
   xmlns:svg="http://www.w3.org/2000/svg">
  <defs
     id="defs1" />
  <g
     id="layer1">
    <path
       d="M 23.904409,18.993706 V 125.47395 h 47.666777 c 30.213404,0 53.386794,-23.61338 53.386794,-53.093453 0,-29.773403 -23.17339,-53.386791 -53.386794,-53.386791 z m 47.666777,34.026746 c 10.706692,0 19.506712,8.506686 19.506712,19.360045 0,10.706691 -8.80002,19.213378 -19.506712,19.213378 H 60.13116 V 53.020452 Z M 198.87806,18.993706 H 151.35795 L 117.18454,125.47395 h 39.60009 l 4.10667,-17.01337 h 25.96006 l 4.10668,17.01337 h 41.94676 z m -24.93339,35.346749 6.74668,26.253394 h -13.7867 z M 314.89149,18.993706 h -58.37347 c -15.84004,0 -26.10673,11.73336 -26.10673,24.786724 0,6.600015 2.05334,12.026695 6.89335,18.040042 l 20.24005,24.786724 c 0.58666,0.733335 0.88,1.46667 0.88,2.200005 0,1.46667 -1.17334,2.786674 -3.22668,2.786674 h -33.44007 v 33.880075 h 58.52013 c 15.84004,0 26.10673,-11.58669 26.10673,-24.64005 0,-6.306685 -2.34667,-12.320033 -6.89335,-18.186713 L 279.2514,57.860463 c -0.58666,-0.733335 -0.88,-1.320003 -0.88,-2.053338 0,-1.613337 1.17334,-2.786673 3.22668,-2.786673 h 33.29341 z m 39.74666,0 H 318.4114 V 125.47395 h 36.22675 z m 7.33349,0 V 125.47395 h 47.66678 c 30.2134,0 53.38679,-23.61338 53.38679,-53.093453 0,-29.773403 -23.17339,-53.386791 -53.38679,-53.386791 z m 47.66678,34.026746 c 10.70669,0 19.50671,8.506686 19.50671,19.360045 0,10.706691 -8.80002,19.213378 -19.50671,19.213378 H 398.19839 V 53.020452 Z M 505.11865,18.993706 H 468.8919 V 125.47395 h 36.22675 z m 87.41367,0 H 545.01221 L 510.8388,125.47395 h 39.60009 l 4.10668,-17.01337 h 25.96006 l 4.10668,17.01337 h 41.94676 z m -24.93339,35.346749 6.74669,26.253394 h -13.7867 z M 730.83921,18.993706 H 696.07913 V 65.487147 L 665.42573,18.993706 H 632.27898 V 125.47395 h 34.76008 V 77.660509 l 30.50674,47.813441 h 33.29341 z"
       id="text1"
       style="fill:#ffffff"
       aria-label="DASIDIAN" />
  </g>
</svg>
