<?xml version="1.0" encoding="UTF-8" standalone="no"?>
<!-- Created with Inkscape (http://www.inkscape.org/) -->

<svg
   width="200mm"
   height="40.000004mm"
   viewBox="0 0 755.90552 151.18111"
   version="1.1"
   id="svg1"
   xmlns="http://www.w3.org/2000/svg"
   xmlns:svg="http://www.w3.org/2000/svg">
  <defs
     id="defs1" />
  <g
     id="layer1">
    <path
       d="M 13.110951,18.993706 V 125.47395 h 47.666777 c 30.213404,0 53.386792,-23.61338 53.386792,-53.093453 0,-29.773403 -23.173388,-53.386791 -53.386792,-53.386791 z m 47.666777,34.026746 c 10.706692,0 19.506712,8.506686 19.506712,19.360045 0,10.706691 -8.80002,19.213378 -19.506712,19.213378 H 49.337702 V 53.020452 Z M 188.0846,18.993706 H 140.56449 L 106.39108,125.47395 h 39.60009 l 4.10667,-17.01337 h 25.96006 l 4.10668,17.01337 h 41.94676 z m -24.93339,35.346749 6.74668,26.253394 h -13.7867 z M 304.09803,18.993706 h -58.37347 c -15.84004,0 -26.10673,11.73336 -26.10673,24.786724 0,6.600015 2.05334,12.026695 6.89335,18.040042 l 20.24005,24.786724 c 0.58666,0.733335 0.88,1.46667 0.88,2.200005 0,1.46667 -1.17334,2.786674 -3.22668,2.786674 h -33.44007 v 33.880075 h 58.52013 c 15.84004,0 26.10673,-11.58669 26.10673,-24.64005 0,-6.306685 -2.34667,-12.320033 -6.89335,-18.186713 L 268.45794,57.860463 c -0.58666,-0.733335 -0.88,-1.320003 -0.88,-2.053338 0,-1.613337 1.17334,-2.786673 3.22668,-2.786673 h 33.29341 z m 39.74666,0 H 307.61794 V 125.47395 h 36.22675 z m 7.33349,0 V 125.47395 h 47.66678 c 30.2134,0 53.38679,-23.61338 53.38679,-53.093453 0,-29.773403 -23.17339,-53.386791 -53.38679,-53.386791 z m 47.66678,34.026746 c 10.70669,0 19.50671,8.506686 19.50671,19.360045 0,10.706691 -8.80002,19.213378 -19.50671,19.213378 H 387.40493 V 53.020452 Z M 494.32519,18.993706 H 458.09844 V 125.47395 h 36.22675 z m 87.41367,0 H 534.21875 L 500.04534,125.47395 h 39.60009 l 4.10668,-17.01337 h 25.96006 l 4.10668,17.01337 h 41.94676 z m -24.93339,35.346749 6.74669,26.253394 h -13.7867 z M 720.04575,18.993706 H 685.28567 V 65.487147 L 654.63227,18.993706 H 621.48552 V 125.47395 H 656.2456 V 77.660509 l 30.50674,47.813441 h 33.29341 z"
       id="text1"
       style="font-weight:900;font-size:146.667px;line-height:0;font-family:Restore;-inkscape-font-specification:'Restore Heavy';fill:#ffffff"
       aria-label="DASIDIAN" />
    <path
       d="m 739.95619,26.95989 c 0,-4.399996 -3.6,-7.999992 -8.03333,-7.999992 -4.39999,0 -7.99999,3.599996 -7.99999,7.999992 0,4.433329 3.6,8.033326 7.99999,8.033326 4.43333,0 8.03333,-3.599997 8.03333,-8.033326 z m -8.03333,-5.766661 c 3.2,0 5.76666,2.566664 5.76666,5.766661 0,3.23333 -2.56666,5.833328 -5.76666,5.833328 -3.19999,0 -5.79999,-2.599998 -5.79999,-5.833328 0,-3.199997 2.6,-5.766661 5.79999,-5.766661 z m 3.13333,6.733327 h -0.8 c -0.2,0 -0.33333,-0.06667 -0.36666,-0.166667 l -0.2,-0.266666 c 0.86666,-0.4 1.13333,-1.133333 1.13333,-1.799999 0,-1.299998 -0.96667,-2.066664 -2.2,-2.066664 h -3.33333 v 6.333327 h 2.13333 v -2.099998 l 0.83334,1.299999 c 0.36666,0.533333 0.9,0.799999 1.66666,0.799999 h 1.13333 z m -2.83333,-2.433331 c 0.33334,0 0.5,0.166666 0.5,0.466666 0,0.266666 -0.13333,0.499999 -0.5,0.499999 h -0.8 v -0.966665 z"
       id="text2"
       style="fill:#ffffff"
       aria-label="®" />
  </g>
</svg>
