<?xml version="1.0" encoding="UTF-8" standalone="no"?>
<svg
   version="1.1"
   viewBox="0 0 27225 1024"
   id="svg2"
   width="27225"
   height="1024"
   xmlns="http://www.w3.org/2000/svg"
   xmlns:svg="http://www.w3.org/2000/svg">
  <defs
     id="defs2" />
  <g
     fill="none"
     fill-rule="evenodd"
     id="g2">
    <rect
       style="fill:#000000;stroke:none;stroke-width:0.676172;stroke-dasharray:none;stroke-opacity:1"
       id="rect1"
       width="164.80165"
       height="29.152647"
       x="0.19831721"
       y="2.1814897" />
    <path
       d="m 2.221553,4.556035 v 24.199977 h 10.833323 c 6.86666,0 12.133322,-5.366662 12.133322,-12.066655 0,-6.7666604 -5.266662,-12.133322 -12.133322,-12.133322 z m 10.833323,7.733326 c 2.433331,0 4.433329,1.933331 4.433329,4.399996 0,2.433331 -1.999998,4.366662 -4.433329,4.366662 H 10.454878 V 12.289361 Z M 41.988161,4.556035 H 31.188172 l -7.76666,24.199977 h 8.999992 l 0.933332,-3.866663 h 5.899994 l 0.933333,3.866663 h 9.533324 z m -5.666661,8.033326 1.533332,5.966661 H 34.721501 Z M 68.354763,4.556035 H 55.088109 c -3.599997,0 -5.933328,2.6666642 -5.933328,5.633328 0,1.499999 0.466666,2.733331 1.566665,4.099996 l 4.599996,5.633328 c 0.133333,0.166667 0.2,0.333333 0.2,0.5 0,0.333333 -0.266667,0.633332 -0.733333,0.633332 h -7.599993 v 7.699993 h 13.299988 c 3.599996,0 5.933327,-2.633331 5.933327,-5.599995 0,-1.433332 -0.533333,-2.799997 -1.566665,-4.133329 L 60.25477,13.38936 c -0.133333,-0.166667 -0.199999,-0.3 -0.199999,-0.466666 0,-0.366667 0.266666,-0.633333 0.733332,-0.633333 h 7.56666 z m 9.033305,0 h -8.233326 v 24.199977 h 8.233326 z m 1.666691,0 v 24.199977 h 10.833323 c 6.86666,0 12.133318,-5.366662 12.133318,-12.066655 0,-6.7666604 -5.266658,-12.133322 -12.133318,-12.133322 z m 10.833323,7.733326 c 2.433331,0 4.433329,1.933331 4.433329,4.399996 0,2.433331 -1.999998,4.366662 -4.433329,4.366662 H 87.288085 V 12.289361 Z M 111.58806,4.556035 h -8.23332 v 24.199977 h 8.23332 z m 19.86668,0 h -10.79999 l -7.76666,24.199977 h 8.99999 l 0.93333,-3.866663 h 5.9 l 0.93333,3.866663 h 9.53332 z m -5.66666,8.033326 1.53333,5.966661 h -3.13333 z m 37.09995,-8.033326 h -7.9 V 15.122692 L 148.02137,4.556035 h -7.53332 v 24.199977 h 7.89999 V 17.889356 l 6.93333,10.866656 h 7.56666 z"
       id="text2"
       style="font-weight:900;font-size:33.3333px;line-height:0;font-family:Restore;-inkscape-font-specification:'Restore Heavy';fill:#ffffff;fill-opacity:0.85098"
       aria-label="DASIDIAN" />
  </g>
</svg>
